<svg id="visual" viewBox="0 0 960 540" width="960" height="540" xmlns="http://www.w3.org/2000/svg" xmlns:xlink="http://www.w3.org/1999/xlink" version="1.1"><rect x="0" y="0" width="960" height="540" fill="#ffffff"></rect><path d="M0 377L137 343L274 339L411 387L549 369L686 377L823 374L960 318L960 541L823 541L686 541L549 541L411 541L274 541L137 541L0 541Z" fill="#290b88"></path><path d="M0 426L137 419L274 368L411 363L549 418L686 429L823 402L960 384L960 541L823 541L686 541L549 541L411 541L274 541L137 541L0 541Z" fill="#3519a4"></path><path d="M0 434L137 444L274 405L411 401L549 401L686 447L823 408L960 439L960 541L823 541L686 541L549 541L411 541L274 541L137 541L0 541Z" fill="#4127c1"></path><path d="M0 462L137 473L274 452L411 463L549 446L686 435L823 451L960 478L960 541L823 541L686 541L549 541L411 541L274 541L137 541L0 541Z" fill="#4c35df"></path><path d="M0 477L137 486L274 512L411 484L549 496L686 480L823 473L960 498L960 541L823 541L686 541L549 541L411 541L274 541L137 541L0 541Z" fill="#5544ff"></path></svg>